<?xml version="1.0" encoding="iso-8859-1"?>
<!-- Uploaded to: SVG Repo, www.svgrepo.com, Generator: SVG Repo Mixer Tools -->
<svg height="800px" width="800px" version="1.1" id="Layer_1" xmlns="http://www.w3.org/2000/svg" xmlns:xlink="http://www.w3.org/1999/xlink" 
	 viewBox="0 0 512 512" xml:space="preserve">
<g>
	<path style="fill:#FFC571;" d="M404.212,258.369c-11.308-2.428-32.538-14.548-56.717-30.27l-18.291,18.291
		c-6.894,6.894-18.07,6.894-24.964,0c-6.894-6.903-6.894-18.07,0-24.973l13.427-13.418c-9.066-6.303-18.15-12.756-26.977-19.129
		l-14.451,14.451c-6.894,6.894-18.07,6.894-24.964,0c-6.894-6.894-6.894-18.07,0-24.964l10.593-10.602
		c-15.828-11.767-29.149-21.919-37.367-28.239c-5.129-3.937-12.359-3.452-16.931,1.121l-18.132,18.132
		c-5.402,5.402-5.402,14.159,0,19.571l4.935,4.926c6.082,6.091,4.326,16.587-3.584,19.986
		c-87.164,37.429-127.912-34.701-127.912-34.701C33.683,163.305,8.983,331.011,8.983,331.011h503.014
		C511.996,265.14,442.382,266.614,404.212,258.369"/>
	<path style="fill:#F79200;" d="M206.81,251.559l-45.303-10.231l-13.047-27.507c-5.005,0.282-9.799,0.221-14.345-0.194
		l-13.135,27.701l-45.303,10.231l32.777,28.31l-7.742,51.138l40.527-35.31l40.527,35.31l-7.742-51.138L206.81,251.559z"/>
	<path style="fill:#FFC571;" d="M150.069,260.386c0,4.882-3.955,8.828-8.828,8.828s-8.828-3.946-8.828-8.828
		s3.955-8.828,8.828-8.828S150.069,255.505,150.069,260.386"/>
	<path style="fill:#DEDEE1;" d="M512,331.007H8.986L0,357.181c0,0,6.735,17.964,71.857,17.964h387.178
		C459.034,375.145,512.141,371.834,512,331.007"/>
	<g>
		<path style="fill:#F79200;" d="M251.272,203.318L251.272,203.318c-6.894-6.886-6.894-18.07,0-24.964l18.732-18.723
			c6.886-6.894,18.07-6.894,24.964,0c6.894,6.894,6.894,18.07,0,24.964l-18.723,18.723
			C269.342,210.212,258.166,210.212,251.272,203.318"/>
		<path style="fill:#F79200;" d="M304.237,246.387L304.237,246.387c-6.894-6.894-6.894-18.07,0-24.964l18.732-18.723
			c6.886-6.894,18.07-6.894,24.964,0c6.894,6.886,6.894,18.07,0,24.964l-18.723,18.723
			C322.308,253.281,311.132,253.281,304.237,246.387"/>
	</g>
</g>
</svg>